<svg width="600" height="160" viewBox="0 0 600 160" xmlns="http://www.w3.org/2000/svg">

<style>
.line{stroke:black;stroke-width:2}
.thin{stroke:black;stroke-width:1.5;fill:none}
.text{font-family:Arial;font-size:16px}
</style>

<rect width="100%" height="100%" fill="white"/>

<text x="20" y="30" class="text">Fixed-Fixed Beam with Uniformly Distributed Load</text>

<!-- wall -->
<line x1="140" y1="30" x2="140" y2="110" class="line"/>
<line x1="140" y1="50" x2="125" y2="65" class="thin"/>
<line x1="140" y1="65" x2="125" y2="80" class="thin"/>
<line x1="140" y1="80" x2="125" y2="95" class="thin"/>

<!-- wall -->
<line x1="460" y1="30" x2="460" y2="110" class="line"/>
<line x1="475" y1="50" x2="460" y2="65" class="thin"/>
<line x1="475" y1="65" x2="460" y2="80" class="thin"/>
<line x1="475" y1="80" x2="460" y2="95" class="thin"/>

<!-- beam -->
<line x1="140" y1="80" x2="460" y2="80" class="line"/>

<!-- load -->
<line x1="150" y1="50" x2="150" y2="80" class="line"/>
<polygon points="145,65 155,65 150,80" fill="black"/>

<line x1="250" y1="50" x2="250" y2="80" class="line"/>
<polygon points="245,65 255,65 250,80" fill="black"/>

<line x1="350" y1="50" x2="350" y2="80" class="line"/>
<polygon points="345,65 355,65 350,80" fill="black"/>

<line x1="450" y1="50" x2="450" y2="80" class="line"/>
<polygon points="445,65 455,65 450,80" fill="black"/>

<text x="300" y="40" class="text">w</text>

</svg>









