<svg width="600" height="160" viewBox="0 0 600 160" xmlns="http://www.w3.org/2000/svg">

<style>
.line{stroke:black;stroke-width:2}
.thin{stroke:black;stroke-width:1.5}
.text{font-family:Arial;font-size:16px}
</style>

<rect width="100%" height="100%" fill="white"/>

<text x="20" y="30" class="text">Fixed-Fixed Beam with Uniformly Distributed Load</text>

<line x1="140" y1="50" x2="140" y2="110" class="line"/>
<line x1="460" y1="50" x2="460" y2="110" class="line"/>

<line x1="140" y1="80" x2="460" y2="80" class="line"/>

<line x1="180" y1="50" x2="180" y2="80" class="thin"/>
<polygon points="175,80 185,80 180,95" fill="black"/>

<line x1="260" y1="50" x2="260" y2="80" class="thin"/>
<polygon points="255,80 265,80 260,95" fill="black"/>

<line x1="340" y1="50" x2="340" y2="80" class="thin"/>
<polygon points="335,80 345,80 340,95" fill="black"/>

<line x1="420" y1="50" x2="420" y2="80" class="thin"/>
<polygon points="415,80 425,80 420,95" fill="black"/>

<text x="470" y="60" class="text">w</text>

</svg>
