<svg width="600" height="160" viewBox="0 0 600 160" xmlns="http://www.w3.org/2000/svg">

<style>
.line{stroke:black;stroke-width:2}
.thin{stroke:black;stroke-width:1.5}
.text{font-family:Arial;font-size:16px}
</style>

<rect width="100%" height="100%" fill="white"/>

<text x="20" y="30" class="text">Simply Supported Beam with Uniformly Distributed Load</text>

<line x1="140" y1="80" x2="460" y2="80" class="line"/>

<polygon points="140,80 125,105 155,105" fill="none" stroke="black" stroke-width="2"/>
<polygon points="460,80 445,105 475,105" fill="none" stroke="black" stroke-width="2"/>

<line x1="140" y1="40" x2="140" y2="80" class="thin"/>
<polygon points="175,65 185,65 180,80" fill="black"/>

<line x1="245" y1="40" x2="245" y2="80" class="thin"/>
<polygon points="255,65 265,65 260,80" fill="black"/>

<line x1="355" y1="40" x2="355" y2="80" class="thin"/>
<polygon points="335,65 345,65 340,80" fill="black"/>

<line x1="460" y1="40" x2="460" y2="80" class="thin"/>
<polygon points="415,65 425,65 420,80" fill="black"/>

<line x1="140" y1="40" x2="460" y2="40" class="line"/>

<text x="470" y="60" class="text">w</text>

</svg>