<svg width="600" height="160" viewBox="0 0 600 160" xmlns="http://www.w3.org/2000/svg">

<style>
.line{stroke:black;stroke-width:2;fill:none}
.thin{stroke:black;stroke-width:1.5;fill:none}
.text{font-family:Arial;font-size:16px}
</style>

<rect width="100%" height="100%" fill="white"/>

<text x="20" y="30" class="text">Cantilever Beam with Uniformly Distributed Load</text>

<line x1="120" y1="50" x2="120" y2="110" class="line"/>

<line x1="120" y1="80" x2="520" y2="80" class="line"/>

<g>
<line x1="160" y1="50" x2="160" y2="80" class="thin"/>
<polygon points="155,80 165,80 160,95" fill="black"/>

<line x1="240" y1="50" x2="240" y2="80" class="thin"/>
<polygon points="235,80 245,80 240,95" fill="black"/>

<line x1="320" y1="50" x2="320" y2="80" class="thin"/>
<polygon points="315,80 325,80 320,95" fill="black"/>

<line x1="400" y1="50" x2="400" y2="80" class="thin"/>
<polygon points="395,80 405,80 400,95" fill="black"/>

<line x1="480" y1="50" x2="480" y2="80" class="thin"/>
<polygon points="475,80 485,80 480,95" fill="black"/>
</g>

<text x="530" y="60" class="text">w</text>

</svg>