<svg width="600" height="160" viewBox="0 0 600 160" xmlns="http://www.w3.org/2000/svg">

<style>
.line{stroke:black;stroke-width:2;fill:none}
.thin{stroke:black;stroke-width:1.5;fill:none}
.text{font-family:Arial;font-size:16px}
</style>

<rect width="100%" height="100%" fill="white"/>

<text x="20" y="15" class="text">Cantilever Beam with Uniformly Distributed Load</text>

<!-- wall -->
<line x1="140" y1="30" x2="140" y2="110" class="line"/>
<line x1="140" y1="50" x2="125" y2="65" class="thin"/>
<line x1="140" y1="65" x2="125" y2="80" class="thin"/>
<line x1="140" y1="80" x2="125" y2="95" class="thin"/>

<!-- beam -->
<line x1="140" y1="80" x2="460" y2="80" class="line"/>

<!-- load -->
<line x1="160" y1="50" x2="160" y2="80" class="line"/>
<polygon points="155,65 165,65 160,80" fill="black"/>

<line x1="260" y1="50" x2="260" y2="80" class="line"/>
<polygon points="255,65 265,65 260,80" fill="black"/>

<line x1="360" y1="50" x2="360" y2="80" class="line"/>
<polygon points="355,65 365,65 360,80" fill="black"/>

<line x1="460" y1="50" x2="460" y2="80" class="line"/>
<polygon points="455,65 465,65 460,80" fill="black"/>

<line x1="140" y1="50" x2="460" y2="50" class="line"/>

<text x="315" y="40" class="text">w</text>

</svg>